<svg version="1" xmlns="http://www.w3.org/2000/svg" width="666.667" height="666.667" viewBox="0 0 500 500"><path d="M206.3 100.7c-2 .3-3.7 1.2-4.4 2.4-1.1 2.1-.6 133.8.7 177.3.3 11.8.1 25.3-.6 33.5-.6 7.5-1.5 26-2 41.1-.5 15.1-1.2 30.7-1.6 34.7l-.7 7.2 2.9 1.2c7.4 2.8 33.9 1.8 37.1-1.4.9-.9 1.8-9.2 2.9-24.7 1.8-27.2 2.2-151.8.8-223.7-1.1-50.1.3-45.7-14.4-47.3-9.5-1-14.6-1-20.7-.3zm53.7 1.9c-11.9 1.8-13 3.7-13 22.3 0 12 .2 13.2 2.3 15.6 3.2 3.7 11.2 4.8 37.2 4.9 25.8.1 27.5-.3 30-6.9 2.3-5.8 1.8-29.6-.6-32-3.4-3.4-11.6-4.5-32.9-4.4-11.3.1-21.6.3-23 .5zM296 227c-3.6.4-11.3.8-17.2.9-14.1.1-25.2 1.8-27.3 4.1-2.2 2.4-4.8 24.4-3.4 29.2 2.3 8.5 6.2 9.4 40.1 9 16.1-.2 16.8-.3 19.5-2.6 2.7-2.4 2.8-2.7 2.6-11.8-.4-12.4-1.9-26.8-2.9-27.8-1.6-1.4-4.8-1.7-11.4-1z"/></svg>